<svg width="16" height="16" viewBox="0 0 16 16" xmlns="http://www.w3.org/2000/svg">
<g clip-path="url(#clip0_7539_6783)">
<path d="M1 6.5V7.5L15 7.5V6.5H16V9.5H15V8.5L1 8.5V9.5H0L1.31134e-07 6.5H1Z"/>
<path d="M2 2.5C2 2.22386 2.22386 2 2.5 2L13.5 2C13.7761 2 14 2.22386 14 2.5C14 2.77614 13.7761 3 13.5 3L2.5 3C2.22386 3 2 2.77614 2 2.5Z"/>
<path d="M2 0.5C2 0.223858 2.22386 0 2.5 0L13.5 0C13.7761 0 14 0.223858 14 0.5C14 0.776142 13.7761 1 13.5 1L2.5 1C2.22386 1 2 0.776142 2 0.5Z"/>
<path d="M2 4.5C2 4.22386 2.22386 4 2.5 4L9.5 4C9.77614 4 10 4.22386 10 4.5C10 4.77614 9.77614 5 9.5 5L2.5 5C2.22386 5 2 4.77614 2 4.5Z"/>
<path d="M2 13.5C2 13.2239 2.22386 13 2.5 13H13.5C13.7761 13 14 13.2239 14 13.5C14 13.7761 13.7761 14 13.5 14H2.5C2.22386 14 2 13.7761 2 13.5Z"/>
<path d="M2 11.5C2 11.2239 2.22386 11 2.5 11H13.5C13.7761 11 14 11.2239 14 11.5C14 11.7761 13.7761 12 13.5 12H2.5C2.22386 12 2 11.7761 2 11.5Z"/>
<path d="M2 15.5C2 15.2239 2.22386 15 2.5 15H9.5C9.77614 15 10 15.2239 10 15.5C10 15.7761 9.77614 16 9.5 16H2.5C2.22386 16 2 15.7761 2 15.5Z"/>
</g>
<defs>
<clipPath id="clip0_7539_6783">
<rect width="16" height="16"/>
</clipPath>
</defs>
</svg>
