<svg width="20" height="20" viewBox="0 0 20 20" xmlns="http://www.w3.org/2000/svg">
<path d="M11.5709 11.7164L10.1941 17.2239C10.1436 17.4259 9.8565 17.4259 9.806 17.2239L8.42913 11.7164C8.41122 11.6448 8.35527 11.5888 8.28361 11.5709L2.77614 10.1941C2.57415 10.1436 2.57415 9.8565 2.77614 9.806L8.28361 8.42913C8.35527 8.41122 8.41122 8.35527 8.42913 8.28361L9.806 2.77614C9.8565 2.57415 10.1436 2.57415 10.1941 2.77614L11.5709 8.28361C11.5888 8.35527 11.6448 8.41122 11.7164 8.42913L17.2239 9.806C17.4259 9.8565 17.4259 10.1436 17.2239 10.1941L11.7164 11.5709C11.6448 11.5888 11.5888 11.6448 11.5709 11.7164Z" />
<path d="M4.87245 15.016L1.68074 15.4149C1.56632 15.4292 1.56296 15.5939 1.6767 15.6128L3.92957 15.9883C3.97172 15.9953 4.00475 16.0283 4.01177 16.0705L4.38725 18.3234C4.40621 18.4371 4.57082 18.4337 4.58512 18.3193L4.98408 15.1276C4.99217 15.0629 4.93716 15.0079 4.87245 15.016Z" />
<path d="M15.1276 15.016L18.3193 15.4149C18.4337 15.4292 18.4371 15.5939 18.3234 15.6128L16.0705 15.9883C16.0283 15.9953 15.9953 16.0283 15.9883 16.0705L15.6128 18.3234C15.5939 18.4371 15.4292 18.4337 15.4149 18.3193L15.016 15.1276C15.0079 15.0629 15.0629 15.0079 15.1276 15.016Z" />
<path d="M4.87245 4.98408L1.68074 4.58512C1.56632 4.57082 1.56296 4.40621 1.6767 4.38725L3.92957 4.01177C3.97172 4.00475 4.00475 3.97172 4.01177 3.92957L4.38725 1.6767C4.40621 1.56296 4.57082 1.56632 4.58512 1.68074L4.98408 4.87245C4.99217 4.93716 4.93716 4.99217 4.87245 4.98408Z" />
<path d="M15.1276 4.98408L18.3193 4.58512C18.4337 4.57082 18.4371 4.40621 18.3234 4.38725L16.0705 4.01177C16.0283 4.00475 15.9953 3.97172 15.9883 3.92957L15.6128 1.6767C15.5939 1.56296 15.4292 1.56632 15.4149 1.68074L15.016 4.87245C15.0079 4.93716 15.0629 4.99217 15.1276 4.98408Z" />
</svg>
