<svg width="16" height="16" viewBox="0 0 16 16" xmlns="http://www.w3.org/2000/svg">
<path fill-rule="evenodd" clip-rule="evenodd" d="M2 6V5V3V2H3H5H6C6 3.10457 6.89543 4 8 4C9.10457 4 10 3.10457 10 2H11H13H14V3V5V6C15.1046 6 16 6.89543 16 8C16 9.10457 15.1046 10 14 10V11V13V14H13H11H10C10 12.8954 9.10457 12 8 12C6.89543 12 6 12.8954 6 14H5H3H2V13V11V10C0.895431 10 0 9.10457 0 8C0 6.89543 0.895431 6 2 6ZM3 6V3H5.17071C5.58254 4.16519 6.69378 5 8 5C9.30622 5 10.4175 4.16519 10.8293 3H13V6V7H14C14.5523 7 15 7.44772 15 8C15 8.55228 14.5523 9 14 9H13V10V13H10.8293C10.4175 11.8348 9.30622 11 8 11C6.69378 11 5.58254 11.8348 5.17071 13H3V10V9H2C1.44772 9 1 8.55228 1 8C1 7.44772 1.44772 7 2 7H3V6ZM6.5 7V6H9.5V7H8.5V10H7.5V7H6.5Z" />
</svg>
