<svg width="16" height="16" viewBox="0 0 16 16" xmlns="http://www.w3.org/2000/svg">
<path d="M1 2.82754C1.88498 2.45777 3.1539 2.05941 4.38768 1.93497C5.71799 1.80079 6.8464 1.99806 7.5 2.68668V12.4325C6.56511 11.9025 5.38065 11.8297 4.28732 11.94C3.10693 12.0591 1.91771 12.4011 1 12.751V2.82754ZM8.5 2.68668C9.1536 1.99806 10.282 1.80079 11.6123 1.93497C12.8461 2.05941 14.115 2.45777 15 2.82754V12.751C14.0823 12.4011 12.8931 12.0591 11.7127 11.94C10.6194 11.8297 9.43489 11.9025 8.5 12.4325V2.68668ZM8 1.78303C7.01509 0.936435 5.58683 0.808944 4.28732 0.940018C2.77322 1.09274 1.24459 1.61232 0.293099 2.04481C0.114601 2.12595 0 2.30392 0 2.49999V13.5C0 13.67 0.0863761 13.8284 0.229307 13.9204C0.372238 14.0124 0.55214 14.0255 0.706901 13.9552C1.58875 13.5543 3.01012 13.0739 4.38768 12.935C5.79565 12.793 6.97747 13.0222 7.60957 13.8123C7.70445 13.9309 7.84811 14 8 14C8.15189 14 8.29555 13.9309 8.39043 13.8123C9.02253 13.0222 10.2043 12.793 11.6123 12.935C12.9899 13.0739 14.4113 13.5543 15.2931 13.9552C15.4479 14.0255 15.6278 14.0124 15.7707 13.9204C15.9136 13.8284 16 13.67 16 13.5V2.49999C16 2.30392 15.8854 2.12595 15.7069 2.04481C14.7554 1.61232 13.2268 1.09274 11.7127 0.940018C10.4132 0.808944 8.98491 0.936435 8 1.78303Z" />
</svg>
